<?xml version="1.0" standalone="no"?>
<!DOCTYPE svg PUBLIC "-//W3C//DTD SVG 20010904//EN"
 "http://www.w3.org/TR/2001/REC-SVG-20010904/DTD/svg10.dtd">
<svg version="1.0" xmlns="http://www.w3.org/2000/svg"
 width="484.000000pt" height="484.000000pt" viewBox="0 0 484.000000 484.000000"
 preserveAspectRatio="xMidYMid meet">
<metadata>
Created by potrace 1.14, written by Peter Selinger 2001-2017
</metadata>
<g transform="translate(0.000000,484.000000) scale(0.100000,-0.100000)"
fill="#000000" stroke="none">
<path d="M1530 4562 c0 -5 -13 -7 -29 -4 -33 5 -121 -48 -121 -73 0 -8 -4 -15
-9 -15 -12 0 -49 -60 -54 -86 -2 -10 -6 -26 -9 -34 -72 -204 -101 -311 -102
-377 -1 -51 -5 -73 -13 -73 -7 0 -13 -3 -13 -7 0 -5 -7 -47 -15 -94 -8 -48
-28 -176 -44 -286 -34 -234 -49 -290 -97 -369 -20 -32 -52 -99 -71 -149 -19
-49 -41 -100 -49 -112 -8 -13 -14 -25 -14 -28 0 -5 -24 -31 -90 -100 -21 -22
-53 -69 -71 -105 -17 -36 -47 -89 -65 -117 -50 -79 -91 -166 -86 -185 2 -10
-1 -18 -6 -18 -6 0 -9 -11 -7 -25 1 -14 -1 -25 -5 -25 -4 0 -7 -7 -7 -15 0 -8
5 -15 10 -15 5 0 2 -11 -7 -24 -9 -15 -11 -26 -5 -28 6 -2 3 -21 -10 -50 -23
-54 -31 -166 -12 -177 9 -6 8 -11 -3 -20 -20 -16 -26 -64 -30 -212 -4 -112 -7
-134 -39 -224 -84 -238 -110 -305 -153 -395 -56 -115 -145 -328 -147 -352 -1
-10 -4 -18 -8 -18 -6 0 -50 -124 -48 -138 1 -4 -2 -17 -6 -29 -4 -12 -6 -25
-5 -29 1 -4 -3 -10 -8 -13 -9 -6 -63 -186 -67 -223 0 -10 -4 -21 -8 -24 -4 -4
-7 -11 -7 -16 0 -4 1049 -8 2331 -8 l2331 0 -6 48 c-3 26 -10 94 -17 152 -27
251 -38 323 -55 347 -30 47 -48 211 -49 458 -1 286 -12 408 -52 577 -12 54
-14 100 -10 220 6 160 19 225 71 363 15 39 33 91 40 116 7 25 20 56 29 70 8
13 23 49 32 79 10 30 31 78 46 105 40 72 84 196 115 327 24 100 28 137 31 331
5 208 4 219 -17 263 -26 53 -103 118 -158 134 -70 19 -148 12 -225 -20 -162
-68 -328 -169 -433 -263 -106 -95 -201 -170 -239 -189 -60 -31 -150 -35 -216
-10 -130 50 -211 85 -304 132 -107 54 -212 83 -425 120 -69 12 -159 28 -200
37 -49 10 -97 13 -140 9 -111 -10 -177 22 -220 104 -10 19 -30 46 -45 60 -15
14 -31 35 -36 48 -5 12 -15 22 -23 22 -7 0 -17 11 -20 24 -3 14 -22 41 -41 62
-19 20 -35 40 -35 44 0 4 -9 15 -20 25 -11 10 -20 22 -20 28 0 17 -34 82 -47
90 -7 4 -13 13 -13 19 0 15 -71 109 -115 151 -19 19 -35 38 -35 43 0 8 -34 41
-102 99 -10 8 -26 15 -37 15 -10 0 -24 7 -31 15 -7 8 -22 15 -34 15 -11 0 -30
7 -40 15 -22 17 -36 19 -36 7z"/>
</g>
</svg>
